<svg width="1952" height="1944" viewBox="0 0 1952 1944" fill="none" xmlns="http://www.w3.org/2000/svg">
<g clip-path="url(#clip0_1685_244)">
<rect width="1952" height="1944" fill="#010D14"/>
<rect x="1803.51" y="787.003" width="146" height="146" transform="rotate(-17.7407 1803.51 787.003)" stroke="url(#paint0_linear_1685_244)" stroke-opacity="0.45" stroke-width="4"/>
<rect x="1487.51" y="1848" width="146" height="146" transform="rotate(-17.7407 1487.51 1848)" stroke="url(#paint1_linear_1685_244)" stroke-opacity="0.45" stroke-width="4"/>
<rect x="1119" y="1109" width="61" height="61" stroke="url(#paint2_linear_1685_244)" stroke-opacity="0.45" stroke-width="4"/>
<rect x="360" y="162" width="79.5043" height="79.5" stroke="url(#paint3_linear_1685_244)" stroke-opacity="0.33" stroke-width="4"/>
<rect x="1941.05" y="110.303" width="150" height="150" transform="rotate(106.83 1941.05 110.303)" fill="url(#paint4_linear_1685_244)" fill-opacity="0.45"/>
<rect x="-6" y="65" width="95" height="95" fill="url(#paint5_linear_1685_244)" fill-opacity="0.45"/>
<rect x="17" y="832.84" width="50" height="50" transform="rotate(-0.961515 17 832.84)" fill="url(#paint6_linear_1685_244)" fill-opacity="0.33"/>
<rect x="1699" y="1419.84" width="73.5772" height="85.4076" transform="rotate(-0.961515 1699 1419.84)" fill="url(#paint7_linear_1685_244)" fill-opacity="0.33"/>
<rect x="1627.75" y="40.6135" width="65.439" height="71.1091" transform="rotate(124.83 1627.75 40.6135)" fill="url(#paint8_linear_1685_244)" fill-opacity="0.33"/>
<rect x="1723.6" y="689.967" width="33.3146" height="33.9952" transform="rotate(134.83 1723.6 689.967)" fill="url(#paint9_linear_1685_244)" fill-opacity="0.33"/>
<rect x="1721.7" y="512.624" width="61" height="61" transform="rotate(124.83 1721.7 512.624)" stroke="url(#paint10_linear_1685_244)" stroke-opacity="0.33" stroke-width="4"/>
<rect x="155.696" y="1489.62" width="61" height="61" transform="rotate(124.83 155.696 1489.62)" stroke="url(#paint11_linear_1685_244)" stroke-opacity="0.33" stroke-width="4"/>
<g filter="url(#filter0_f_1685_244)">
<path d="M439.501 523.991L439.501 666L523.001 746L1413 746L1533 878" stroke="url(#paint12_linear_1685_244)" stroke-width="9"/>
</g>
<g filter="url(#filter1_f_1685_244)">
<path d="M410.212 1536.36L410.22 1378.49L496.226 1289.32L1412.89 1286.77L1536.5 1139.68" stroke="url(#paint13_linear_1685_244)" stroke-width="9"/>
</g>
</g>
<defs>
<filter id="filter0_f_1685_244" x="425.001" y="513.991" width="1121.33" height="377.036" filterUnits="userSpaceOnUse" color-interpolation-filters="sRGB">
<feFlood flood-opacity="0" result="BackgroundImageFix"/>
<feBlend mode="normal" in="SourceGraphic" in2="BackgroundImageFix" result="shape"/>
<feGaussianBlur stdDeviation="5" result="effect1_foregroundBlur_1685_244"/>
</filter>
<filter id="filter1_f_1685_244" x="395.712" y="1126.79" width="1154.23" height="419.576" filterUnits="userSpaceOnUse" color-interpolation-filters="sRGB">
<feFlood flood-opacity="0" result="BackgroundImageFix"/>
<feBlend mode="normal" in="SourceGraphic" in2="BackgroundImageFix" result="shape"/>
<feGaussianBlur stdDeviation="5" result="effect1_foregroundBlur_1685_244"/>
</filter>
<linearGradient id="paint0_linear_1685_244" x1="1876" y1="785.707" x2="1876" y2="935.707" gradientUnits="userSpaceOnUse">
<stop stop-color="#2E5693"/>
<stop offset="1" stop-color="#0A1E3C" stop-opacity="0.97"/>
</linearGradient>
<linearGradient id="paint1_linear_1685_244" x1="1560" y1="1846.71" x2="1560" y2="1996.71" gradientUnits="userSpaceOnUse">
<stop stop-color="#2E5693"/>
<stop offset="1" stop-color="#0A1E3C" stop-opacity="0.97"/>
</linearGradient>
<linearGradient id="paint2_linear_1685_244" x1="1149.5" y1="1107" x2="1149.5" y2="1172" gradientUnits="userSpaceOnUse">
<stop stop-color="#2E5693"/>
<stop offset="1" stop-color="#0A1E3C" stop-opacity="0.97"/>
</linearGradient>
<linearGradient id="paint3_linear_1685_244" x1="399.752" y1="160" x2="399.752" y2="243.5" gradientUnits="userSpaceOnUse">
<stop stop-color="#00FD65"/>
<stop offset="1" stop-color="#0D0D0D"/>
</linearGradient>
<linearGradient id="paint4_linear_1685_244" x1="2016.05" y1="110.303" x2="2016.05" y2="260.303" gradientUnits="userSpaceOnUse">
<stop stop-color="#2E5693"/>
<stop offset="1" stop-color="#0A1E3C" stop-opacity="0.97"/>
</linearGradient>
<linearGradient id="paint5_linear_1685_244" x1="41.5" y1="65" x2="41.5" y2="160" gradientUnits="userSpaceOnUse">
<stop stop-color="#2E5693"/>
<stop offset="1" stop-color="#0A1E3C" stop-opacity="0.97"/>
</linearGradient>
<linearGradient id="paint6_linear_1685_244" x1="42" y1="832.84" x2="42" y2="882.84" gradientUnits="userSpaceOnUse">
<stop stop-color="#00FD65"/>
<stop offset="1" stop-color="#0D0D0D"/>
</linearGradient>
<linearGradient id="paint7_linear_1685_244" x1="1735.79" y1="1419.84" x2="1735.79" y2="1505.25" gradientUnits="userSpaceOnUse">
<stop stop-color="#00FD65"/>
<stop offset="1" stop-color="#0D0D0D"/>
</linearGradient>
<linearGradient id="paint8_linear_1685_244" x1="1660.46" y1="40.6135" x2="1660.46" y2="111.723" gradientUnits="userSpaceOnUse">
<stop stop-color="#00FD65"/>
<stop offset="1" stop-color="#0D0D0D"/>
</linearGradient>
<linearGradient id="paint9_linear_1685_244" x1="1740.25" y1="689.967" x2="1740.25" y2="723.962" gradientUnits="userSpaceOnUse">
<stop stop-color="#00FD65"/>
<stop offset="1" stop-color="#0D0D0D"/>
</linearGradient>
<linearGradient id="paint10_linear_1685_244" x1="1756.98" y1="512.125" x2="1756.98" y2="577.125" gradientUnits="userSpaceOnUse">
<stop stop-color="#00FD65"/>
<stop offset="1" stop-color="#0D0D0D"/>
</linearGradient>
<linearGradient id="paint11_linear_1685_244" x1="190.979" y1="1489.12" x2="190.979" y2="1554.12" gradientUnits="userSpaceOnUse">
<stop stop-color="#00FD65"/>
<stop offset="1" stop-color="#0D0D0D"/>
</linearGradient>
<linearGradient id="paint12_linear_1685_244" x1="1535.44" y1="695.881" x2="440.43" y2="716.159" gradientUnits="userSpaceOnUse">
<stop stop-color="#033134"/>
<stop offset="1" stop-color="#C08AEA" stop-opacity="0.17"/>
</linearGradient>
<linearGradient id="paint13_linear_1685_244" x1="1539" y1="1342.14" x2="411.179" y2="1322.73" gradientUnits="userSpaceOnUse">
<stop stop-color="#033134"/>
<stop offset="1" stop-color="#C08AEA" stop-opacity="0.17"/>
</linearGradient>
<clipPath id="clip0_1685_244">
<rect width="1952" height="1944" fill="white"/>
</clipPath>
</defs>
</svg>
